<svg xmlns="http://www.w3.org/2000/svg" xmlns:xlink="http://www.w3.org/1999/xlink" width="500" zoomAndPan="magnify" viewBox="0 0 375 374.999991" height="500" preserveAspectRatio="xMidYMid meet" version="1.0"><defs><clipPath id="92ed49eed7"><path d="M 82.667969 0 L 300.492188 0 L 300.492188 375 L 82.667969 375 Z M 82.667969 0 " clip-rule="nonzero"/></clipPath></defs><g clip-path="url(#92ed49eed7)"><path fill="#ffffff" d="M 118.285156 30.902344 L 120.789062 24.441406 C 121.074219 23.699219 121.683594 23.128906 122.445312 22.890625 L 129.054688 20.808594 L 123.683594 16.433594 C 123.066406 15.929688 122.710938 15.175781 122.71875 14.378906 L 122.785156 7.449219 L 116.960938 11.207031 C 116.292969 11.636719 115.464844 11.742188 114.710938 11.488281 L 108.140625 9.285156 L 109.914062 15.984375 C 110.117188 16.75 109.960938 17.574219 109.484375 18.210938 L 105.359375 23.773438 L 112.277344 24.160156 C 113.074219 24.207031 113.804688 24.609375 114.265625 25.257812 Z M 118.910156 38.992188 C 118.085938 38.972656 117.316406 38.566406 116.839844 37.894531 L 110.730469 29.316406 L 100.21875 28.734375 C 98.777344 28.652344 97.671875 27.417969 97.753906 25.976562 C 97.78125 25.464844 97.960938 24.972656 98.265625 24.5625 L 104.53125 16.105469 L 101.839844 5.929688 C 101.46875 4.53125 102.304688 3.097656 103.703125 2.730469 C 104.195312 2.601562 104.71875 2.617188 105.199219 2.777344 L 115.183594 6.128906 L 124.027344 0.417969 C 125.242188 -0.363281 126.863281 -0.015625 127.644531 1.199219 C 127.921875 1.628906 128.066406 2.132812 128.0625 2.644531 L 127.964844 13.171875 L 136.125 19.820312 C 137.246094 20.734375 137.414062 22.382812 136.5 23.503906 C 136.175781 23.898438 135.746094 24.195312 135.257812 24.34375 L 125.214844 27.503906 L 121.410156 37.320312 C 121.011719 38.347656 120.011719 39.015625 118.910156 38.992188 Z M 279.148438 60.261719 L 277.890625 56.195312 C 277.679688 55.511719 277.789062 54.769531 278.191406 54.175781 L 280.578125 50.65625 L 276.328125 50.59375 C 275.609375 50.585938 274.9375 50.25 274.496094 49.6875 L 271.886719 46.324219 L 270.515625 50.355469 C 270.285156 51.03125 269.757812 51.570312 269.085938 51.808594 L 265.082031 53.253906 L 268.492188 55.804688 C 269.0625 56.234375 269.414062 56.898438 269.433594 57.613281 L 269.570312 61.867188 L 273.046875 59.414062 C 273.632812 59.003906 274.375 58.878906 275.0625 59.074219 Z M 284.160156 65.582031 C 283.5625 66.054688 282.773438 66.210938 282.039062 66 L 274.839844 63.914062 L 268.71875 68.238281 C 267.65625 68.988281 266.183594 68.734375 265.433594 67.671875 C 265.167969 67.296875 265.019531 66.847656 265.003906 66.390625 L 264.765625 58.898438 L 258.761719 54.410156 C 257.71875 53.628906 257.507812 52.15625 258.289062 51.113281 C 258.566406 50.746094 258.941406 50.46875 259.375 50.3125 L 266.421875 47.765625 L 268.835938 40.671875 C 269.253906 39.441406 270.59375 38.78125 271.824219 39.199219 C 272.257812 39.351562 272.640625 39.621094 272.921875 39.984375 L 277.523438 45.898438 L 285.015625 46.003906 C 286.316406 46.023438 287.355469 47.089844 287.335938 48.390625 C 287.332031 48.851562 287.191406 49.300781 286.933594 49.683594 L 282.726562 55.886719 L 284.941406 63.042969 C 285.230469 63.96875 284.917969 64.976562 284.160156 65.582031 Z M 94.429688 368.265625 L 98.265625 365.714844 C 98.863281 365.320312 99.605469 365.214844 100.289062 365.433594 L 104.671875 366.835938 L 103.433594 362.402344 C 103.242188 361.710938 103.371094 360.972656 103.792969 360.390625 L 106.480469 356.65625 L 101.882812 356.464844 C 101.167969 356.433594 100.503906 356.082031 100.082031 355.503906 L 97.355469 351.789062 L 95.753906 356.105469 C 95.503906 356.777344 94.960938 357.296875 94.28125 357.523438 L 89.910156 358.964844 L 93.519531 361.824219 C 94.078125 362.269531 94.40625 362.945312 94.410156 363.660156 Z M 90.695312 374.539062 C 90.097656 374.097656 89.742188 373.398438 89.738281 372.65625 L 89.707031 364.8125 L 83.558594 359.941406 C 82.539062 359.132812 82.367188 357.652344 83.175781 356.632812 C 83.460938 356.273438 83.847656 356.003906 84.285156 355.859375 L 91.734375 353.402344 L 94.464844 346.050781 C 94.917969 344.832031 96.273438 344.210938 97.496094 344.664062 C 97.925781 344.824219 98.300781 345.109375 98.574219 345.480469 L 103.210938 351.804688 L 111.046875 352.132812 C 112.34375 352.1875 113.355469 353.285156 113.300781 354.582031 C 113.28125 355.042969 113.128906 355.488281 112.859375 355.863281 L 108.273438 362.226562 L 110.386719 369.78125 C 110.734375 371.035156 110.003906 372.332031 108.75 372.683594 C 108.308594 372.804688 107.835938 372.796875 107.398438 372.65625 L 99.929688 370.265625 L 93.398438 374.605469 C 92.570312 375.15625 91.492188 375.128906 90.695312 374.539062 Z M 285.953125 356.054688 L 286 349.125 C 286.007812 348.328125 286.375 347.578125 286.996094 347.085938 L 292.441406 342.796875 L 285.863281 340.609375 C 285.109375 340.359375 284.511719 339.78125 284.234375 339.03125 L 281.835938 332.53125 L 277.726562 338.109375 C 277.253906 338.75 276.515625 339.140625 275.722656 339.171875 L 268.800781 339.445312 L 272.832031 345.078125 C 273.296875 345.722656 273.4375 346.546875 273.222656 347.3125 L 271.339844 353.976562 L 277.945312 351.882812 C 278.703125 351.640625 279.53125 351.757812 280.191406 352.203125 Z M 289.40625 363.394531 C 288.628906 363.671875 287.765625 363.5625 287.082031 363.105469 L 278.328125 357.253906 L 268.292969 360.4375 C 266.914062 360.875 265.445312 360.109375 265.007812 358.734375 C 264.855469 358.246094 264.84375 357.722656 264.984375 357.230469 L 267.84375 347.101562 L 261.714844 338.539062 C 260.875 337.367188 261.144531 335.730469 262.320312 334.890625 C 262.738281 334.59375 263.230469 334.421875 263.742188 334.402344 L 274.261719 333.992188 L 280.503906 325.515625 C 281.359375 324.351562 283 324.105469 284.164062 324.960938 C 284.578125 325.265625 284.890625 325.6875 285.066406 326.164062 L 288.710938 336.042969 L 298.699219 339.363281 C 300.070312 339.820312 300.8125 341.304688 300.355469 342.675781 C 300.195312 343.160156 299.894531 343.585938 299.492188 343.902344 L 291.226562 350.417969 L 291.152344 360.945312 C 291.144531 362.046875 290.445312 363.027344 289.40625 363.394531 Z M 244.726562 50.71875 C 244.546875 50.71875 244.371094 50.695312 244.199219 50.652344 L 150.648438 27.445312 C 149.386719 27.132812 148.617188 25.855469 148.929688 24.589844 C 149.242188 23.328125 150.519531 22.558594 151.78125 22.875 L 245.335938 46.078125 C 246.597656 46.390625 247.367188 47.667969 247.054688 48.933594 C 246.789062 50 245.824219 50.742188 244.726562 50.71875 Z M 126.113281 365.023438 C 124.964844 365.023438 123.984375 364.191406 123.792969 363.058594 C 123.582031 361.773438 124.445312 360.5625 125.730469 360.347656 L 247.558594 339.992188 C 248.839844 339.78125 250.054688 340.648438 250.269531 341.929688 C 250.484375 343.210938 249.617188 344.425781 248.335938 344.640625 L 126.503906 364.996094 C 126.375 365.015625 126.242188 365.023438 126.113281 365.023438 Z M 271.90625 321.09375 C 270.953125 321.105469 270.089844 320.539062 269.71875 319.664062 L 217.871094 197.597656 C 217.363281 196.398438 217.917969 195.019531 219.117188 194.507812 C 220.3125 194 221.695312 194.554688 222.207031 195.753906 L 274.054688 317.820312 C 274.5625 319.019531 274.007812 320.402344 272.808594 320.910156 C 272.523438 321.03125 272.21875 321.09375 271.90625 321.09375 Z M 144.746094 201.429688 C 143.699219 201.394531 142.800781 200.667969 142.542969 199.648438 L 104.058594 46.28125 C 103.742188 45.015625 104.507812 43.738281 105.769531 43.421875 C 105.769531 43.421875 105.769531 43.417969 105.769531 43.417969 C 107.03125 43.105469 108.3125 43.871094 108.628906 45.132812 L 147.113281 198.503906 C 147.429688 199.765625 146.664062 201.042969 145.402344 201.359375 C 145.1875 201.414062 144.96875 201.4375 144.746094 201.429688 Z M 221.375 166.054688 C 221.066406 166.058594 220.757812 166 220.46875 165.886719 C 219.261719 165.398438 218.679688 164.027344 219.164062 162.820312 L 255.773438 71.851562 C 256.257812 70.644531 257.628906 70.0625 258.835938 70.546875 C 260.042969 71.03125 260.628906 72.402344 260.140625 73.609375 L 223.535156 164.578125 C 223.179688 165.460938 222.328125 166.042969 221.375 166.054688 Z M 106.878906 335.800781 C 106.570312 335.804688 106.261719 335.742188 105.976562 335.625 C 104.769531 335.136719 104.191406 333.765625 104.679688 332.558594 L 144.519531 234.578125 C 145.007812 233.375 146.378906 232.792969 147.585938 233.285156 C 148.792969 233.773438 149.371094 235.148438 148.882812 236.351562 L 109.046875 334.332031 C 108.6875 335.210938 107.832031 335.792969 106.878906 335.800781 Z M 151.605469 221.777344 L 152.796875 219.769531 C 153.164062 219.15625 153.789062 218.738281 154.496094 218.640625 L 156.808594 218.320312 L 155.269531 216.566406 C 154.796875 216.027344 154.59375 215.304688 154.71875 214.601562 L 155.128906 212.300781 L 152.984375 213.222656 C 152.328125 213.507812 151.578125 213.476562 150.945312 213.136719 L 148.886719 212.039062 L 149.101562 214.363281 C 149.167969 215.078125 148.90625 215.78125 148.390625 216.277344 L 146.707031 217.894531 L 148.984375 218.410156 C 149.683594 218.566406 150.273438 219.03125 150.585938 219.675781 Z M 150.292969 228.820312 C 149.851562 228.585938 149.496094 228.21875 149.277344 227.769531 L 146.84375 222.757812 L 141.40625 221.53125 C 140.136719 221.242188 139.34375 219.980469 139.628906 218.710938 C 139.730469 218.265625 139.960938 217.855469 140.292969 217.535156 L 144.304688 213.667969 L 143.792969 208.121094 C 143.671875 206.824219 144.625 205.679688 145.921875 205.558594 C 146.378906 205.515625 146.839844 205.609375 147.246094 205.828125 L 152.164062 208.449219 L 157.28125 206.246094 C 158.476562 205.730469 159.863281 206.285156 160.375 207.480469 C 160.558594 207.902344 160.613281 208.367188 160.53125 208.820312 L 159.554688 214.308594 L 163.234375 218.496094 C 164.089844 219.472656 163.996094 220.960938 163.015625 221.820312 C 162.671875 222.125 162.242188 222.320312 161.789062 222.382812 L 156.269531 223.152344 L 153.421875 227.941406 C 152.78125 229.023438 151.402344 229.40625 150.292969 228.820312 Z M 177.121094 200.195312 L 179.351562 199.503906 C 180.035156 199.289062 180.777344 199.402344 181.371094 199.804688 L 183.304688 201.113281 L 183.335938 198.78125 C 183.34375 198.066406 183.679688 197.390625 184.242188 196.953125 L 186.085938 195.519531 L 183.878906 194.769531 C 183.199219 194.539062 182.664062 194.011719 182.417969 193.339844 L 181.628906 191.144531 L 180.230469 193.015625 C 179.800781 193.585938 179.136719 193.933594 178.417969 193.957031 L 176.085938 194.03125 L 177.433594 195.941406 C 177.847656 196.523438 177.96875 197.265625 177.773438 197.953125 Z M 171.597656 204.90625 C 171.285156 204.351562 171.207031 203.695312 171.382812 203.085938 L 172.929688 197.730469 L 169.71875 193.179688 C 168.964844 192.117188 169.21875 190.644531 170.28125 189.894531 C 170.660156 189.628906 171.105469 189.480469 171.5625 189.464844 L 177.132812 189.285156 L 180.46875 184.824219 C 181.25 183.78125 182.726562 183.566406 183.765625 184.347656 C 184.136719 184.621094 184.414062 185 184.570312 185.433594 L 186.464844 190.671875 L 191.742188 192.464844 C 192.972656 192.882812 193.632812 194.222656 193.210938 195.457031 C 193.0625 195.890625 192.792969 196.273438 192.429688 196.554688 L 188.027344 199.976562 L 187.953125 205.546875 C 187.933594 206.847656 186.867188 207.886719 185.566406 207.871094 C 185.105469 207.863281 184.65625 207.722656 184.277344 207.464844 L 179.664062 204.335938 L 174.34375 205.988281 C 173.289062 206.316406 172.144531 205.867188 171.597656 204.90625 Z M 204.980469 179.617188 L 207.09375 180.609375 C 207.742188 180.914062 208.214844 181.496094 208.382812 182.191406 L 208.925781 184.460938 L 210.523438 182.757812 C 211.011719 182.234375 211.714844 181.960938 212.425781 182.019531 L 214.753906 182.203125 L 213.628906 180.160156 C 213.28125 179.53125 213.242188 178.78125 213.515625 178.121094 L 214.40625 175.964844 L 212.117188 176.40625 C 211.414062 176.539062 210.6875 176.347656 210.140625 175.882812 L 208.367188 174.367188 L 208.078125 176.679688 C 207.988281 177.390625 207.582031 178.023438 206.96875 178.398438 Z M 197.679688 179.667969 C 197.75 178.933594 198.164062 178.269531 198.792969 177.882812 L 203.546875 174.972656 L 204.238281 169.441406 C 204.402344 168.152344 205.578125 167.238281 206.871094 167.398438 C 207.324219 167.457031 207.753906 167.644531 208.105469 167.945312 L 212.34375 171.5625 L 217.816406 170.515625 C 219.09375 170.269531 220.328125 171.109375 220.570312 172.386719 C 220.65625 172.839844 220.609375 173.304688 220.433594 173.730469 L 218.300781 178.878906 L 220.988281 183.757812 C 221.617188 184.898438 221.203125 186.332031 220.0625 186.957031 C 219.660156 187.179688 219.199219 187.28125 218.742188 187.246094 L 213.1875 186.804688 L 209.375 190.871094 C 208.488281 191.820312 206.996094 191.867188 206.046875 190.976562 C 205.710938 190.664062 205.476562 190.257812 205.367188 189.808594 L 204.066406 184.390625 L 199.023438 182.023438 C 198.121094 181.601562 197.585938 180.65625 197.679688 179.667969 " fill-opacity="1" fill-rule="nonzero"/></g></svg>